<svg id="Capa_1" enable-background="new 0 0 512 512" height="512" viewBox="0 0 512 512" width="512" xmlns="http://www.w3.org/2000/svg"><g><g><g><g><path d="m75.046 95.749h32.339v39.973h-32.339z" fill="#e7e3db"/></g><g><g><path d="m105.523 140.455h-28.339l-77.184 161.993 32.497 1.493 58.555-122.891 55.937 122.891 32.322-1.493z" fill="#7d89e5"/></g></g><path d="m89.656 395.491c-49.516 0-89.656-40.14-89.656-89.655v-3.388h179.311v3.388c0 49.515-40.14 89.655-89.655 89.655z" fill="#5cd4ab"/></g><g><path d="m179.311 302.448-73.788-161.993h-14.471v40.595l55.937 122.891z" fill="#6260d0"/></g><g><path d="m91.052 95.749h16.334v39.973h-16.334z" fill="#d9d1c2"/><path d="m91.052 302.448v93.026c48.871-.747 88.26-40.589 88.26-89.638v-3.388z" fill="#32bea6"/></g></g><g><g><g><path d="m407.735 95.749h32.339v39.973h-32.339z" fill="#e7e3db"/></g><g><g><path d="m438.212 140.455h-28.339l-77.184 161.993 32.497 1.493 58.554-122.891 55.938 122.891 32.322-1.493z" fill="#7d89e5"/></g></g><path d="m422.345 395.491c-49.516 0-89.656-40.14-89.656-89.655v-3.388h179.311v3.388c0 49.515-40.14 89.655-89.655 89.655z" fill="#5cd4ab"/></g><g><path d="m512 302.448-73.788-161.993h-14.472v40.595l55.938 122.891z" fill="#6260d0"/></g><g><path d="m423.74 95.749h16.334v39.973h-16.334z" fill="#d9d1c2"/><path d="m423.74 302.448v93.026c48.871-.747 88.26-40.589 88.26-89.638v-3.388z" fill="#32bea6"/></g></g><g><path d="m241.01 198.674h29.98v237.833h-29.98z" fill="#e7e3db"/></g><g><path d="m256 198.674h14.99v237.833h-14.99z" fill="#d9d1c2"/></g><g><path d="m49.992 130.559h123.582v29.98h-123.582z" fill="#f2ede5"/></g><g><path d="m91.052 130.559h82.522v29.98h-82.522z" fill="#e7e3db"/></g><g><path d="m340.134 130.559h121.583v29.98h-121.583z" fill="#f2ede5"/></g><g><path d="m423.74 130.559h37.976v29.98h-37.976z" fill="#e7e3db"/></g><g><g><g><g><g><path d="m256 218.742c-60.307 0-109.371-49.064-109.371-109.371s49.064-109.371 109.371-109.371 60.307 218.742 0 218.742z" fill="#fde01d"/></g></g></g></g><g><path d="m256 0v218.742c60.307 0 109.371-49.064 109.371-109.371s-49.064-109.371-109.371-109.371z" fill="#fed330"/></g><g><g><path d="m244.283 89.663c0-3.323 3.046-6.093 12.601-6.093 8.447 0 17.447 2.354 27.002 7.201l9.832-23.679c-7.893-4.431-17.863-7.062-28.11-8.031v-14.817h-19.525v15.094c-22.709 3.185-34.064 16.34-34.064 31.987 0 36.142 53.589 26.31 53.589 38.496 0 3.323-3.323 5.262-12.601 5.262-10.663 0-22.848-3.462-31.987-8.862l-10.524 23.817c8.308 5.124 21.74 8.862 35.587 9.693v14.678h19.525v-15.371c21.463-3.739 32.264-16.755 32.264-31.71 0-35.726-53.589-26.033-53.589-37.665z" fill="#fd8d34"/></g><g fill="#fd6e2e"><path d="m265.608 159.038c21.463-3.739 32.264-16.755 32.264-31.71 0-24.935-26.102-27.745-41.872-31.122v27.223c5.7 1.418 9.608 3.103 9.608 6.391 0 2.937-2.603 4.79-9.608 5.182v39.407h9.608z"/><path d="m283.886 90.771 9.832-23.679c-7.893-4.431-17.863-7.062-28.11-8.031v-14.817h-9.608v39.343c.294-.006.576-.016.884-.016 8.447-.001 17.447 2.353 27.002 7.2z"/></g></g></g><path d="m351.314 421.517h-190.353c-24.797 0-44.97 20.173-44.97 44.97v30.523h280.292v-30.523c.001-24.796-20.172-44.97-44.969-44.97z" fill="#d9d1c2"/><g><path d="m396.284 466.487c0-24.797-20.173-44.97-44.97-44.97h-95.314v75.493h140.284z" fill="#ccc2b4"/></g><g><g><g><path d="m84.115 482.02h343.771v29.98h-343.771z" fill="#f2ede5"/></g></g></g><g><path d="m256 482.02h171.885v29.98h-171.885z" fill="#e7e3db"/></g></g></svg>