<?xml version="1.0" encoding="iso-8859-1"?>
<!-- Generator: Adobe Illustrator 19.0.0, SVG Export Plug-In . SVG Version: 6.00 Build 0)  -->
<svg version="1.1" id="Capa_1" xmlns="http://www.w3.org/2000/svg" xmlns:xlink="http://www.w3.org/1999/xlink" x="0px" y="0px"
	 viewBox="0 0 512 512" style="enable-background:new 0 0 512 512;" xml:space="preserve">
<path style="fill:#FF9155;" d="M50.167,117.69h371.667c22.183,0,40.167,17.983,40.167,40.167v249.667
	c0,22.183-17.983,40.167-40.167,40.167H50.167C27.983,447.69,10,429.707,10,407.524V157.857C10,135.673,27.983,117.69,50.167,117.69
	z"/>
<polygon style="fill:#46C373;" points="312.297,197.893 348.735,161.456 197.586,10.307 10,197.893 "/>
<path style="fill:#FFA069;" d="M411,389.69v72c0,22.091-17.909,40-40,40H50c-22.091,0-40-17.909-40-40v-300.78v-3.22l0,0
	c0,22.091,17.909,40,40,40h321c22.091,0,40,17.909,40,40v68V389.69z"/>
<path style="fill:#FF824B;" d="M502,272.69v77c0,22.091-17.909,40-40,40H280c-22.091,0-40-17.909-40-40l0,0
	c0-22.091,17.909-40,40-40h183c21.539,0,39-17.461,39-39l0,0"/>
<polygon style="fill:#D7FA91;" points="372.93,197.893 409.367,161.456 258.219,10.307 70.633,197.893 "/>
<g>
	<path style="fill:#46C373;" d="M221.781,46.745c9.325,9.325,22.208,15.093,36.438,15.093s27.112-5.768,36.438-15.093
		l-36.438-36.438L221.781,46.745z"/>
	<path style="fill:#46C373;" d="M372.93,197.893L372.93,197.893l36.438-36.438l-36.438-36.438
		c-9.325,9.325-15.093,22.208-15.093,36.438C357.837,175.686,363.604,188.568,372.93,197.893z"/>
	<path style="fill:#46C373;" d="M259.326,197.893c-3.522-8.018-8.545-15.535-15.11-22.1c-28.323-28.323-74.243-28.323-102.565,0
		c-6.565,6.565-11.588,14.082-15.11,22.1H259.326z"/>
</g>
<path d="M204.43,491.69c-2.64,0-5.21,1.069-7.07,2.93s-2.93,4.44-2.93,7.07s1.07,5.21,2.93,7.069c1.86,1.86,4.44,2.931,7.07,2.931
	s5.21-1.07,7.07-2.931c1.86-1.859,2.93-4.439,2.93-7.069s-1.07-5.21-2.93-7.07C209.64,492.759,207.06,491.69,204.43,491.69z"/>
<path d="M48,323.165v92.833c0,5.522,4.477,10,10,10s10-4.478,10-10v-92.833c0-5.522-4.477-10-10-10S48,317.642,48,323.165z"/>
<path d="M65.07,274.43c-1.86-1.86-4.44-2.931-7.07-2.931s-5.21,1.07-7.07,2.931c-1.86,1.859-2.93,4.43-2.93,7.069
	c0,2.63,1.07,5.21,2.93,7.07c1.86,1.86,4.44,2.93,7.07,2.93s5.21-1.069,7.07-2.93s2.93-4.44,2.93-7.07S66.93,276.29,65.07,274.43z"
	/>
<path d="M512,270.69c0-23.943-17.267-43.917-40-48.157v-64.843c0-27.57-22.43-50-50-50h-52.256L265.29,3.236
	c-3.905-3.904-10.237-3.904-14.143,0l-23.245,23.245L204.657,3.236c-3.905-3.904-10.237-3.904-14.142,0L85.44,108.311
	c-1.074-0.394-2.229-0.62-3.44-0.62H50c-27.57,0-50,22.43-50,50c0,0.729,0.024,1.453,0.055,2.174C0.019,160.208,0,160.557,0,160.91
	v300.78c0,27.57,22.43,50,50,50h112.333c5.523,0,10-4.478,10-10s-4.477-10-10-10H50c-16.542,0-30-13.458-30-30V197.663
	c8.363,6.292,18.753,10.027,30,10.027l209.326,0.203H372.93c0.326,0,0.652-0.017,0.976-0.048c0.019-0.002,0.038-0.005,0.057-0.007
	c15.156,1.493,27.037,14.31,27.037,29.853v62H280c-27.57,0-50,22.43-50,50s22.43,50,50,50h121v62c0,16.542-13.458,30-30,30H246.333
	c-5.523,0-10,4.478-10,10s4.477,10,10,10H371c27.57,0,50-22.43,50-50v-4h1c27.57,0,50-22.43,50-50v-9.006
	c22.795-4.646,40-24.847,40-48.994v-77c0-0.209-0.006-0.417-0.019-0.623C511.994,271.61,512,271.15,512,270.69z M222.365,60.304
	c10.673,7.662,23.26,11.506,35.854,11.506s25.181-3.843,35.854-11.506l65.298,65.298c-13.125,18.282-15.014,42.189-5.657,62.088
	h-88.275c-3.776-6.962-8.51-13.326-14.152-18.968c-15.587-15.587-36.311-24.171-58.354-24.171s-42.767,8.584-58.354,24.171
	c-5.643,5.642-10.377,12.006-14.152,18.968h-25.45L222.365,60.304z M241.489,187.69h-97.11c1.36-1.675,2.805-3.287,4.344-4.825
	c11.809-11.81,27.511-18.313,44.211-18.313s32.402,6.504,44.211,18.313C238.684,184.404,240.129,186.016,241.489,187.69z
	 M373.796,140.027l21.429,21.429l-21.429,21.429C365.886,169.753,365.886,153.16,373.796,140.027z M258.219,24.45l21.429,21.429
	c-12.783,7.699-28.842,7.9-41.8,0.611c0.449-0.836,0.767-1.722,0.962-2.63L258.219,24.45z M50,127.69h16.061l-43.063,43.063
	C21.079,166.802,20,162.37,20,157.69C20,141.148,33.458,127.69,50,127.69z M37.214,184.822L197.586,24.45l16.174,16.174
	L66.693,187.69H50C45.429,187.69,41.095,186.658,37.214,184.822z M392.437,192.529l24.001-24.001c3.905-3.905,3.905-10.237,0-14.143
	l-26.694-26.694H422c16.542,0,30,13.458,30,30v142h-31v-62C421,217.788,409.31,200.57,392.437,192.529z M422,437.69h-1v-38h31v8
	C452,424.232,438.542,437.69,422,437.69z M492,349.69c0,16.542-13.458,30-30,30H280c-16.542,0-30-13.458-30-30s13.458-30,30-30h183
	c10.843,0,20.875-3.54,29-9.525V349.69z M472,298.253v-55.126c11.597,3.796,20,14.714,20,27.563S483.597,294.457,472,298.253z"/>
<path d="M282,339.69c-2.63,0-5.21,1.069-7.07,2.93c-1.86,1.86-2.93,4.44-2.93,7.07s1.07,5.21,2.93,7.069
	c1.86,1.86,4.44,2.931,7.07,2.931s5.21-1.07,7.07-2.931c1.86-1.859,2.93-4.439,2.93-7.069s-1.07-5.21-2.93-7.07
	S284.63,339.69,282,339.69z"/>
<path d="M269.125,160.55c2.559,0,5.119-0.977,7.071-2.929l17.38-17.38c3.905-3.905,3.906-10.237,0-14.143
	c-3.906-3.903-10.237-3.904-14.142,0l-17.38,17.38c-3.905,3.905-3.906,10.237,0,14.143
	C264.006,159.574,266.565,160.55,269.125,160.55z"/>
<g>
</g>
<g>
</g>
<g>
</g>
<g>
</g>
<g>
</g>
<g>
</g>
<g>
</g>
<g>
</g>
<g>
</g>
<g>
</g>
<g>
</g>
<g>
</g>
<g>
</g>
<g>
</g>
<g>
</g>
</svg>
